<svg width="1300" height="1300" viewBox="0 0 1300 1300" fill="none" xmlns="http://www.w3.org/2000/svg">
<path d="M650 1300C290.71 1300 0 1008.86 0 650C0 290.71 291.141 0 650 0C1009.29 0 1300 291.141 1300 650C1300.43 1009.29 1009.29 1300 650 1300Z" fill="#B5E2DC"/>
<mask id="mask0_32_1432" style="mask-type:alpha" maskUnits="userSpaceOnUse" x="0" y="0" width="1300" height="1300">
<path d="M650 1300C290.71 1300 0 1008.86 0 650C0 290.71 291.141 0 650 0C1009.29 0 1300 291.141 1300 650C1300.43 1009.29 1009.29 1300 650 1300Z" fill="#F7C0B5"/>
</mask>
<g mask="url(#mask0_32_1432)">
<path d="M1014 1197.33C1010.97 1199.5 1007.5 1201.66 1004.47 1203.83C1001 1206 997.967 1208.16 994.5 1209.9C991.467 1211.63 988.867 1213.36 985.833 1215.1C985.4 1215.53 984.967 1215.53 984.533 1215.96C974.567 1222.03 964.167 1227.66 953.767 1232.86C950.733 1234.6 947.267 1236.33 944.233 1237.63C944.233 1237.63 943.8 1238.06 943.367 1238.06C939.9 1239.8 936.433 1241.53 932.967 1243.26C926.033 1246.73 918.667 1249.76 911.733 1252.8C908.267 1254.53 904.367 1255.83 900.9 1257.13C897.433 1258.43 893.533 1260.16 890.067 1261.46C886.6 1262.76 882.7 1264.5 879.233 1265.8C879.233 1265.8 879.233 1265.8 878.8 1265.8C875.333 1267.1 871.433 1268.4 867.967 1269.7C860.167 1272.3 851.933 1274.9 844.133 1277.5C841.533 1278.36 838.5 1279.23 835.9 1280.1C827.667 1282.7 819.433 1284.86 811.2 1286.6C808.167 1287.46 805.133 1287.9 801.667 1288.76C793.867 1290.5 785.633 1292.23 777.833 1293.96C776.1 1294.4 774.8 1294.4 773.067 1294.83C770.467 1295.26 767.433 1295.7 764.833 1296.13C760.933 1296.56 757.467 1297.43 753.567 1297.86C751.833 1298.3 750.1 1298.3 748.367 1298.73C746.2 1299.16 743.6 1299.6 741 1299.6C734.067 1300.46 726.7 1301.33 719.767 1302.2C717.6 1302.63 715 1302.63 712.833 1303.06H712.4C709.367 1303.5 706.333 1303.5 703.3 1303.93C700.267 1304.36 697.233 1304.36 694.2 1304.36C692.467 1304.36 690.3 1304.8 688.567 1304.8C685.1 1304.8 682.067 1305.23 679.033 1305.23C674.7 1305.23 670.8 1305.66 666.467 1305.66C662.133 1305.66 658.234 1305.66 653.9 1305.66C650.867 1305.66 647.834 1305.66 644.8 1305.66C462.367 1303.06 297.7 1225.5 180.7 1102.43C180.7 1102.43 180.7 1102 180.267 1102C193.7 1075.56 243.534 1027.9 295.534 988.464C361.4 938.631 454.567 907.865 454.567 907.865C454.567 907.865 515.667 897.898 742.3 945.131C915.2 981.531 988.867 1129.3 1014 1197.33Z" fill="#F7D3B5"/>
<path d="M790.4 1065.16C781.3 1109.8 722.367 1136.23 623.134 1096.36C501.367 1046.96 454.567 907.865 454.567 907.865C448.067 808.198 432.901 722.831 432.901 722.831C573.734 710.698 740.134 875.365 740.134 875.365L759.2 956.831C760.934 963.764 764.4 969.831 769.6 974.164C778.7 989.764 796.467 1036.56 790.4 1065.16Z" fill="#F7D3B5"/>
<path d="M769.6 974.598C686.834 970.265 625.734 958.131 560.3 840.698C615.767 889.665 681.2 908.298 750.1 916.965L759.2 956.831C760.934 964.198 764.4 970.265 769.6 974.598Z" fill="#EFBDA5"/>
<path d="M940.767 452.431C948.567 488.831 952.467 518.298 931.233 615.365C910 712.431 950.733 809.498 848.467 898.331C779.567 958.131 659.1 969.398 562.9 903.965C530.4 881.865 500.5 851.098 476.233 810.798C457.167 779.165 435.067 749.265 410.367 721.965C376.133 684.698 334.967 609.731 355.333 477.131C388.267 261.332 601.9 236.632 728 260.465C854.1 284.298 919.533 356.231 940.767 452.431Z" fill="#F7D3B5"/>
<path d="M526.067 621.865C526.067 621.865 512.633 556.865 449.367 564.665C394.767 571.598 375.7 702.465 499.633 738.865" fill="#F7D3B5"/>
<path d="M495.734 679.498C495.734 679.498 480.134 669.531 481.867 652.198C484.467 631.831 481.867 619.265 472.334 615.365C448.5 605.398 443.734 633.131 444.6 636.598" stroke="#423232" stroke-width="13.4786" stroke-miterlimit="10" stroke-linecap="round" stroke-linejoin="round"/>
<path d="M826.367 721.531C826.367 721.531 842.834 722.398 858.434 703.765C867.101 693.365 874.467 680.365 869.701 676.465C864.934 672.131 786.501 684.265 781.301 694.665C776.101 705.065 806.434 721.531 826.367 721.531Z" fill="#EFBDA5"/>
<path d="M839.367 575.931C839.367 575.931 840.234 617.098 866.667 663.031C878.367 683.398 860.6 716.765 822.034 722.398" stroke="#423232" stroke-width="13.4786" stroke-miterlimit="10" stroke-linecap="round" stroke-linejoin="round"/>
<path opacity="0.42" d="M604.5 743.631C629.151 743.631 649.134 727.14 649.134 706.798C649.134 686.455 629.151 669.965 604.5 669.965C579.85 669.965 559.867 686.455 559.867 706.798C559.867 727.14 579.85 743.631 604.5 743.631Z" fill="#ED938A"/>
<path opacity="0.42" d="M924.299 670.831C922.999 695.098 923.433 718.931 921.699 742.765C902.633 738.431 888.766 724.131 888.766 707.231C888.766 689.031 903.933 674.298 924.299 670.831Z" fill="#ED938A"/>
<path d="M1057.78 1116.61C996.25 1037.31 900.916 1004.37 848.483 984.872C844.15 963.206 835.916 939.372 822.916 916.406C802.983 928.539 780.016 937.639 756.183 942.406L759.65 956.706C761.383 963.639 770.05 995.706 756.616 1036.87C745.35 1071.54 699.85 1087.14 622.716 1052.04C472.35 984.006 455.016 907.306 455.016 907.306C452.416 865.706 448.083 826.706 444.183 795.072C397.383 805.472 343.216 826.706 313.75 871.339C277.35 925.939 263.917 981.406 267.383 1025.61C204.117 1065.91 106.183 1127.01 74.1166 1236.21C32.5166 1378.34 39.4499 1465.44 39.4499 1465.44H1159.18C1157.88 1465.87 1141.42 1224.51 1057.78 1116.61Z" fill="#6060D8"/>
<path d="M388.283 974.473C388.283 974.473 414.717 1077.17 530.417 1148.24" stroke="#423232" stroke-width="13.4786" stroke-miterlimit="10" stroke-linecap="round" stroke-linejoin="round"/>
<path d="M848.05 984.873C848.05 984.873 878.817 1117.91 811.65 1179.01" stroke="#423232" stroke-width="13.4786" stroke-miterlimit="10" stroke-linecap="round" stroke-linejoin="round"/>
<path d="M639.183 1158.64C639.183 1158.64 616.65 1224.51 622.716 1270.01" stroke="#423232" stroke-width="13.4786" stroke-miterlimit="10" stroke-linecap="round" stroke-linejoin="round"/>
<path d="M777.417 1154.74C777.417 1154.74 794.317 1191.57 806.45 1250.07" stroke="#423232" stroke-width="13.4786" stroke-miterlimit="10" stroke-linecap="round" stroke-linejoin="round"/>
<path d="M266.517 1026.04C266.517 1026.04 302.051 1170.77 513.517 1213.24" stroke="#423232" stroke-width="13.4786" stroke-miterlimit="10" stroke-linecap="round" stroke-linejoin="round"/>
<path d="M626.617 1279.97L607.55 1278.24C600.617 1277.37 595.417 1270.87 596.717 1263.94L603.217 1231.44C604.95 1222.34 613.617 1215.84 622.717 1217.14C631.817 1218.01 639.184 1225.81 639.184 1235.34L639.617 1268.71C639.617 1275.21 633.55 1280.84 626.617 1279.97Z" fill="white"/>
<path d="M825.518 1260.04L807.318 1266.54C800.384 1269.14 793.018 1264.81 791.718 1257.87L783.918 1225.81C781.751 1216.71 786.518 1207.61 795.618 1204.14C804.284 1201.11 814.251 1205.01 818.151 1213.24L832.451 1243.14C835.484 1249.64 832.451 1257.44 825.518 1260.04Z" fill="white"/>
<path d="M1016.62 1250.07C1016.62 1250.07 1040.88 1386.14 1031.35 1465.87" stroke="#544D4D" stroke-width="13.4786" stroke-miterlimit="10" stroke-linecap="round" stroke-linejoin="round"/>
<path d="M683.943 619.439C673.543 619.006 665.743 610.339 666.61 599.939L667.043 587.806C667.477 577.406 676.143 569.606 686.543 570.472C696.943 570.906 704.743 579.572 703.877 589.972L703.443 602.106C703.01 612.072 694.343 619.872 683.943 619.439Z" fill="#423232"/>
<path d="M866.376 625.939C856.843 625.506 849.476 617.272 849.91 607.739L850.343 596.472C850.776 586.939 859.01 579.572 868.543 580.006C878.076 580.439 885.443 588.672 885.01 598.206L884.576 609.472C884.143 619.006 875.91 626.372 866.376 625.939Z" fill="#423232"/>
<path d="M725.977 594.306C725.977 594.306 714.71 578.272 695.21 575.239C679.177 572.639 661.41 580.439 658.81 589.539" stroke="#423232" stroke-width="13.4786" stroke-miterlimit="10" stroke-linecap="round" stroke-linejoin="round"/>
<path d="M853.81 598.206C853.81 598.206 853.81 584.339 873.743 584.339C890.21 584.339 897.143 599.506 897.143 599.506" stroke="#423232" stroke-width="13.4786" stroke-miterlimit="10" stroke-linecap="round" stroke-linejoin="round"/>
<path d="M743.742 524.539C752.842 527.572 761.942 519.339 760.209 509.372C759.342 504.172 757.175 498.972 752.842 495.072C739.842 483.372 686.109 472.972 653.609 488.139C625.009 502.006 702.142 510.672 743.742 524.539Z" fill="#423232"/>
<path d="M873.308 531.472C865.942 534.072 858.142 526.272 859.442 517.172C859.875 512.406 861.608 507.639 865.075 504.172C875.475 493.772 911.008 485.539 933.542 501.572C953.042 515.006 907.108 518.906 873.308 531.472Z" fill="#423232"/>
<path d="M804.157 772.845C804.607 780.033 799.215 792.613 789.331 801.599C738.561 770.598 715.648 786.772 715.648 786.772C697.676 759.366 701.72 722.075 745.301 750.38C775.852 769.7 794.273 772.845 804.157 772.845Z" fill="#423232"/>
<path d="M789.331 801.599C778.548 811.034 762.374 816.875 740.359 807.889C730.025 803.845 721.938 795.758 715.648 786.773C715.648 786.773 738.562 770.598 789.331 801.599Z" fill="#FE9DAB"/>
<path d="M812.694 771.048C812.694 771.048 793.824 781.381 745.301 750.381C687.343 713.09 699.025 791.266 739.91 807.889C782.592 825.411 804.607 787.222 804.158 772.845" stroke="#423232" stroke-width="13.4786" stroke-miterlimit="10" stroke-linecap="round" stroke-linejoin="round"/>
<path d="M715.648 786.773C715.648 786.773 738.562 770.598 789.331 801.599" stroke="#423232" stroke-width="13.4786" stroke-miterlimit="10" stroke-linecap="round" stroke-linejoin="round"/>
<path d="M908.369 423.094C907.036 417.194 905.258 410.901 903.036 405.001C900.814 399.101 895.481 393.987 888.371 392.807C865.262 389.267 835.043 410.114 803.046 406.181C701.278 393.987 641.285 345.607 545.738 378.254C447.082 412.081 503.076 552.894 482.189 574.527C478.634 563.514 461.302 518.674 404.419 524.967C350.647 530.867 330.204 641.001 441.304 678.761C440.416 700.394 396.42 720.847 360.868 683.087C325.316 645.327 254.212 547.387 302.207 404.214C350.202 261.041 567.514 186.307 769.716 259.074C804.379 271.661 825.266 302.734 855.485 307.847C1136.35 355.047 942.588 590.261 934.144 653.587C931.922 675.221 915.035 451.414 908.369 423.094Z" fill="#423232"/>
<path d="M441.749 679.154C441.749 679.154 440.86 711.407 403.53 771.194C403.53 771.194 394.642 738.154 375.089 707.867C355.98 677.58 334.648 664.6 311.095 601.274C287.542 537.947 314.65 566.267 335.982 592.227C357.757 618.58 371.978 683.087 441.749 679.154Z" fill="#423232"/>
<path d="M834.599 382.187C834.599 382.187 879.039 305.094 718.166 235.474C557.293 165.854 392.421 214.627 293.32 205.187C293.32 205.187 405.308 272.054 519.519 289.361C633.73 306.667 834.599 382.187 834.599 382.187Z" fill="#423232"/>
<path d="M517.297 244.127C517.297 244.127 300.874 242.16 211.994 447.48C211.994 447.48 299.985 398.707 426.195 388.48C552.405 378.254 572.403 254.354 517.297 244.127Z" fill="#423232"/>
<path d="M857.708 391.234C857.708 391.234 994.138 348.754 909.258 246.88C811.046 129.667 494.633 175.294 494.633 175.294C494.633 175.294 608.844 202.04 656.394 260.647C703.501 319.647 821.267 416.407 857.708 391.234Z" fill="#423232"/>
<path d="M759.05 398.707C759.05 398.707 669.281 356.227 614.62 397.527C546.183 449.447 563.958 704.327 563.958 704.327C563.958 704.327 483.522 575.707 484.855 454.954C486.188 334.201 548.849 303.914 614.62 309.027C680.391 314.141 750.607 379.827 759.05 398.707Z" fill="#423232"/>
<path d="M811.046 406.967C811.046 406.967 649.729 283.854 641.285 501.367C641.285 501.367 590.179 455.74 631.508 352.294C672.837 248.847 802.158 331.447 811.046 406.967Z" fill="#423232"/>
<path d="M477.158 636.126C477.158 636.126 442.491 630.926 445.091 679.459C446.391 704.159 446.391 717.592 445.958 724.526C445.525 729.292 448.558 733.626 452.891 735.359C458.091 737.526 463.725 735.359 466.325 730.159C470.225 723.226 474.558 713.692 474.558 705.892C474.558 692.892 488.425 681.192 488.425 681.192C488.425 681.192 475.858 670.359 477.158 636.126Z" fill="white"/>
<path d="M582.025 1471.59C578.558 1467.69 442.492 1234.99 462.858 1147.46C476.725 1087.23 458.525 1017.89 442.492 956.792C435.992 931.659 429.925 908.259 426.458 887.459C420.392 851.492 424.725 817.259 439.458 785.626C455.492 750.092 452.892 719.326 452.892 718.892L461.558 718.026C461.558 719.326 464.158 751.826 447.258 789.092C433.392 818.992 429.492 851.926 435.125 886.159C438.592 906.526 444.658 929.926 451.158 955.059C467.625 1017.03 485.825 1087.66 471.525 1150.06C452.458 1233.26 588.092 1465.96 588.958 1466.83L582.025 1471.59Z" fill="white"/>
<path d="M446.392 704.592C446.825 714.125 446.392 720.625 446.392 724.525C445.958 729.292 448.992 733.625 453.325 735.359C458.525 737.525 464.158 735.359 466.758 730.159C470.658 723.225 474.992 713.692 474.992 705.892C474.992 705.459 474.992 704.592 474.992 704.159C465.892 707.625 455.492 710.225 446.392 704.592Z" fill="#E5E5E5"/>
<path d="M854.158 992.759C851.125 1012.69 850.691 1044.33 849.825 1081.16C848.525 1152.23 806.491 1429.13 786.125 1472.89L778.325 1469.43C797.825 1426.96 839.858 1151.36 841.158 1081.16C842.025 1044.33 842.458 1012.26 845.491 991.459C851.991 947.692 847.225 914.759 844.625 900.892C845.925 899.592 847.225 898.726 848.525 897.426C849.825 896.559 850.691 895.259 851.991 894.392C854.591 905.659 861.958 941.626 854.158 992.759Z" fill="white"/>
</g>
</svg>
