<svg width="50" height="50" viewBox="0 0 50 50" fill="none" xmlns="http://www.w3.org/2000/svg">
<circle cx="25.5" cy="25.5" r="24.5" fill="white"/>
<path d="M12.375 18.2083C12.375 17.4348 12.6823 16.6929 13.2293 16.1459C13.7763 15.5989 14.5181 15.2917 15.2917 15.2917H35.7083C36.4819 15.2917 37.2237 15.5989 37.7707 16.1459C38.3177 16.6929 38.625 17.4348 38.625 18.2083V32.7917C38.625 33.5652 38.3177 34.3071 37.7707 34.854C37.2237 35.401 36.4819 35.7083 35.7083 35.7083H15.2917C14.5181 35.7083 13.7763 35.401 13.2293 34.854C12.6823 34.3071 12.375 33.5652 12.375 32.7917V18.2083Z" stroke="#24A274" stroke-width="2" stroke-linecap="round" stroke-linejoin="round"/>
<path d="M12.375 18.2083L25.5 26.9583L38.625 18.2083" stroke="#24A274" stroke-width="2" stroke-linecap="round" stroke-linejoin="round"/>
</svg>
