<svg width="50" height="50" viewBox="0 0 50 50" fill="none" xmlns="http://www.w3.org/2000/svg">
<circle cx="25.5" cy="25.5" r="24.5" fill="white"/>
<path d="M19.375 10.9167H31.625C36.2917 10.9167 40.0834 14.7083 40.0834 19.375V31.625C40.0834 33.8683 39.1922 36.0197 37.606 37.6059C36.0197 39.1922 33.8683 40.0833 31.625 40.0833H19.375C14.7084 40.0833 10.9167 36.2917 10.9167 31.625V19.375C10.9167 17.1317 11.8078 14.9803 13.3941 13.394C14.9803 11.8078 17.1317 10.9167 19.375 10.9167ZM19.0834 13.8333C17.691 13.8333 16.3556 14.3864 15.371 15.371C14.3865 16.3556 13.8334 17.6909 13.8334 19.0833V31.9167C13.8334 34.8187 16.1813 37.1667 19.0834 37.1667H31.9167C33.3091 37.1667 34.6444 36.6135 35.629 35.629C36.6136 34.6444 37.1667 33.309 37.1667 31.9167V19.0833C37.1667 16.1812 34.8188 13.8333 31.9167 13.8333H19.0834ZM33.1563 16.0208C33.6397 16.0208 34.1034 16.2129 34.4453 16.5547C34.7871 16.8966 34.9792 17.3603 34.9792 17.8437C34.9792 18.3272 34.7871 18.7909 34.4453 19.1327C34.1034 19.4746 33.6397 19.6667 33.1563 19.6667C32.6728 19.6667 32.2091 19.4746 31.8673 19.1327C31.5254 18.7909 31.3334 18.3272 31.3334 17.8437C31.3334 17.3603 31.5254 16.8966 31.8673 16.5547C32.2091 16.2129 32.6728 16.0208 33.1563 16.0208ZM25.5 18.2083C27.4339 18.2083 29.2886 18.9765 30.656 20.344C32.0235 21.7115 32.7917 23.5661 32.7917 25.5C32.7917 27.4339 32.0235 29.2885 30.656 30.656C29.2886 32.0234 27.4339 32.7917 25.5 32.7917C23.5661 32.7917 21.7115 32.0234 20.344 30.656C18.9766 29.2885 18.2084 27.4339 18.2084 25.5C18.2084 23.5661 18.9766 21.7115 20.344 20.344C21.7115 18.9765 23.5661 18.2083 25.5 18.2083ZM25.5 21.125C24.3397 21.125 23.2269 21.5859 22.4064 22.4064C21.586 23.2269 21.125 24.3397 21.125 25.5C21.125 26.6603 21.586 27.7731 22.4064 28.5936C23.2269 29.4141 24.3397 29.875 25.5 29.875C26.6603 29.875 27.7731 29.4141 28.5936 28.5936C29.4141 27.7731 29.875 26.6603 29.875 25.5C29.875 24.3397 29.4141 23.2269 28.5936 22.4064C27.7731 21.5859 26.6603 21.125 25.5 21.125Z" fill="#24A274"/>
</svg>
