<svg width="50" height="50" viewBox="0 0 50 50" fill="none" xmlns="http://www.w3.org/2000/svg">
<circle cx="25.5" cy="25.5" r="24.5" fill="white"/>
<path d="M36.2917 11.625C37.1094 11.625 37.8937 11.9499 38.4719 12.5281C39.0501 13.1063 39.375 13.8906 39.375 14.7083V36.2917C39.375 37.1094 39.0501 37.8937 38.4719 38.4719C37.8937 39.0501 37.1094 39.375 36.2917 39.375H14.7083C13.8906 39.375 13.1063 39.0501 12.5281 38.4719C11.9499 37.8937 11.625 37.1094 11.625 36.2917V14.7083C11.625 13.8906 11.9499 13.1063 12.5281 12.5281C13.1063 11.9499 13.8906 11.625 14.7083 11.625H36.2917ZM35.5208 35.5208V27.35C35.5208 26.0171 34.9913 24.7387 34.0488 23.7962C33.1063 22.8537 31.8279 22.3242 30.495 22.3242C29.1846 22.3242 27.6583 23.1258 26.9183 24.3283V22.6171H22.6171V35.5208H26.9183V27.9204C26.9183 26.7333 27.8742 25.7621 29.0613 25.7621C29.6337 25.7621 30.1827 25.9895 30.5874 26.3942C30.9922 26.799 31.2196 27.348 31.2196 27.9204V35.5208H35.5208ZM17.6067 20.1967C18.2936 20.1967 18.9524 19.9238 19.4381 19.4381C19.9238 18.9524 20.1967 18.2936 20.1967 17.6067C20.1967 16.1729 19.0404 15.0013 17.6067 15.0013C16.9157 15.0013 16.253 15.2757 15.7644 15.7644C15.2757 16.253 15.0013 16.9157 15.0013 17.6067C15.0013 19.0404 16.1729 20.1967 17.6067 20.1967ZM19.7496 35.5208V22.6171H15.4792V35.5208H19.7496Z" fill="#24A274"/>
</svg>
