<svg width="50" height="50" viewBox="0 0 50 50" fill="none" xmlns="http://www.w3.org/2000/svg">
<path d="M29.57 12.85C29.73 13.15 29.82 13.42 29.84 13.66C29.88 13.9 29.9 14.25 29.9 14.71V31.36C29.9 32.74 29.52 33.55 28.76 33.79C28.38 33.91 27.9 33.97 27.32 33.97C26.74 33.97 26.28 33.92 25.94 33.82C25.6 33.72 25.34 33.6 25.16 33.46C24.98 33.32 24.84 33.12 24.74 32.86C24.64 32.52 24.59 32 24.59 31.3V21.25C24.09 21.87 23.36 22.86 22.4 24.22C21.44 25.56 20.83 26.4 20.57 26.74C20.31 27.08 20.13 27.32 20.03 27.46C19.93 27.58 19.68 27.76 19.28 28C18.9 28.22 18.48 28.33 18.02 28.33C17.58 28.33 17.17 28.23 16.79 28.03C16.43 27.81 16.17 27.6 16.01 27.4L15.77 27.07C15.37 26.57 14.58 25.51 13.4 23.89C12.22 22.25 11.58 21.37 11.48 21.25V31.36C11.48 31.82 11.46 32.17 11.42 32.41C11.4 32.63 11.31 32.88 11.15 33.16C10.85 33.7 10.07 33.97 8.81 33.97C7.59 33.97 6.83 33.7 6.53 33.16C6.37 32.88 6.27 32.62 6.23 32.38C6.21 32.14 6.2 31.78 6.2 31.3V14.65C6.2 14.19 6.21 13.85 6.23 13.63C6.27 13.39 6.37 13.12 6.53 12.82C6.83 12.3 7.61 12.04 8.87 12.04C9.41 12.04 9.87 12.11 10.25 12.25C10.65 12.37 10.91 12.5 11.03 12.64L11.21 12.82L18.02 21.76C21.42 17.26 23.69 14.29 24.83 12.85C25.17 12.31 25.97 12.04 27.23 12.04C28.51 12.04 29.29 12.31 29.57 12.85Z" fill="black"/>
<path d="M43.43 16.45C43.95 17.51 44.21 18.69 44.21 19.99C44.21 21.29 43.95 22.47 43.43 23.53C42.91 24.57 42.24 25.4 41.42 26.02C39.76 27.3 38.04 27.94 36.26 27.94H32.51V31.33C32.51 31.79 32.49 32.14 32.45 32.38C32.43 32.6 32.34 32.86 32.18 33.16C31.9 33.7 31.12 33.97 29.84 33.97C28.44 33.97 27.62 33.6 27.38 32.86C27.26 32.52 27.2 32 27.2 31.3V14.65C27.2 14.19 27.21 13.85 27.23 13.63C27.27 13.39 27.37 13.12 27.53 12.82C27.81 12.28 28.59 12.01 29.87 12.01H36.29C38.05 12.01 39.76 12.65 41.42 13.93C42.24 14.55 42.91 15.39 43.43 16.45ZM36.29 22.63C36.89 22.63 37.48 22.41 38.06 21.97C38.64 21.53 38.93 20.87 38.93 19.99C38.93 19.11 38.64 18.45 38.06 18.01C37.48 17.55 36.88 17.32 36.26 17.32H32.51V22.63H36.29Z" fill="#24A274"/>
</svg>
