<svg width="50" height="50" viewBox="0 0 50 50" fill="none" xmlns="http://www.w3.org/2000/svg">
<circle cx="25.5" cy="25.5" r="24.5" fill="white"/>
<path d="M35.7813 15.1604C34.4443 13.8099 32.8517 12.7391 31.0966 12.0105C29.3414 11.2819 27.4587 10.91 25.5583 10.9167C17.5958 10.9167 11.1063 17.4062 11.1063 25.3687C11.1063 27.9208 11.7771 30.4 13.0313 32.5875L10.9896 40.0833L18.6458 38.0708C20.7604 39.2229 23.1375 39.8354 25.5583 39.8354C33.5208 39.8354 40.0104 33.3458 40.0104 25.3833C40.0104 21.5187 38.5083 17.8875 35.7813 15.1604ZM25.5583 37.3854C23.4 37.3854 21.2854 36.8021 19.4333 35.7083L18.9958 35.4458L14.4458 36.6417L15.6563 32.2083L15.3646 31.7562C14.1655 29.8414 13.5288 27.628 13.5271 25.3687C13.5271 18.7479 18.9229 13.3521 25.5438 13.3521C28.7521 13.3521 31.7708 14.6062 34.0313 16.8812C35.1505 17.9953 36.0375 19.3205 36.6408 20.78C37.2441 22.2394 37.5517 23.8041 37.5458 25.3833C37.575 32.0042 32.1792 37.3854 25.5583 37.3854ZM32.15 28.4021C31.7854 28.2271 30.0063 27.3521 29.6854 27.2208C29.35 27.1042 29.1167 27.0458 28.8688 27.3958C28.6208 27.7604 27.9354 28.5771 27.7313 28.8104C27.5271 29.0583 27.3083 29.0875 26.9438 28.8979C26.5792 28.7229 25.4125 28.3292 24.0417 27.1042C22.9625 26.1417 22.2479 24.9604 22.0292 24.5958C21.825 24.2312 22 24.0417 22.1896 23.8521C22.35 23.6917 22.5542 23.4292 22.7292 23.225C22.9042 23.0208 22.9771 22.8604 23.0938 22.6271C23.2104 22.3792 23.1521 22.175 23.0646 22C22.9771 21.825 22.2479 20.0458 21.9563 19.3167C21.6646 18.6167 21.3583 18.7042 21.1396 18.6896H20.4396C20.1917 18.6896 19.8125 18.7771 19.4771 19.1417C19.1563 19.5062 18.2229 20.3812 18.2229 22.1604C18.2229 23.9396 19.5208 25.6604 19.6958 25.8937C19.8708 26.1417 22.2479 29.7875 25.8646 31.3479C26.725 31.7271 27.3958 31.9458 27.9208 32.1062C28.7813 32.3833 29.5688 32.3396 30.1958 32.2521C30.8958 32.15 32.3396 31.3771 32.6313 30.5312C32.9375 29.6854 32.9375 28.9708 32.8354 28.8104C32.7333 28.65 32.5146 28.5771 32.15 28.4021Z" fill="#24A274"/>
</svg>
